%TF.GenerationSoftware,KiCad,Pcbnew,9.0.3*%
%TF.CreationDate,2026-02-15T20:10:58-06:00*%
%TF.ProjectId,relay board,72656c61-7920-4626-9f61-72642e6b6963,rev?*%
%TF.SameCoordinates,Original*%
%TF.FileFunction,Copper,L2,Bot*%
%TF.FilePolarity,Positive*%
%FSLAX46Y46*%
G04 Gerber Fmt 4.6, Leading zero omitted, Abs format (unit mm)*
G04 Created by KiCad (PCBNEW 9.0.3) date 2026-02-15 20:10:58*
%MOMM*%
%LPD*%
G01*
G04 APERTURE LIST*
G04 Aperture macros list*
%AMRoundRect*
0 Rectangle with rounded corners*
0 $1 Rounding radius*
0 $2 $3 $4 $5 $6 $7 $8 $9 X,Y pos of 4 corners*
0 Add a 4 corners polygon primitive as box body*
4,1,4,$2,$3,$4,$5,$6,$7,$8,$9,$2,$3,0*
0 Add four circle primitives for the rounded corners*
1,1,$1+$1,$2,$3*
1,1,$1+$1,$4,$5*
1,1,$1+$1,$6,$7*
1,1,$1+$1,$8,$9*
0 Add four rect primitives between the rounded corners*
20,1,$1+$1,$2,$3,$4,$5,0*
20,1,$1+$1,$4,$5,$6,$7,0*
20,1,$1+$1,$6,$7,$8,$9,0*
20,1,$1+$1,$8,$9,$2,$3,0*%
G04 Aperture macros list end*
%TA.AperFunction,ComponentPad*%
%ADD10RoundRect,0.250000X-0.600000X-0.725000X0.600000X-0.725000X0.600000X0.725000X-0.600000X0.725000X0*%
%TD*%
%TA.AperFunction,ComponentPad*%
%ADD11O,1.700000X1.950000*%
%TD*%
%TA.AperFunction,ComponentPad*%
%ADD12RoundRect,0.250001X1.149999X1.149999X-1.149999X1.149999X-1.149999X-1.149999X1.149999X-1.149999X0*%
%TD*%
%TA.AperFunction,ComponentPad*%
%ADD13C,2.800000*%
%TD*%
%TA.AperFunction,ComponentPad*%
%ADD14RoundRect,0.525000X-5.475000X-1.225000X5.475000X-1.225000X5.475000X1.225000X-5.475000X1.225000X0*%
%TD*%
%TA.AperFunction,Conductor*%
%ADD15C,1.270000*%
%TD*%
G04 APERTURE END LIST*
D10*
%TO.P,J1,1,Pin_1*%
%TO.N,Net-(J1-Pin_1)*%
X168000000Y-21000000D03*
D11*
%TO.P,J1,2,Pin_2*%
%TO.N,Net-(J1-Pin_2)*%
X170500000Y-21000000D03*
%TO.P,J1,3,Pin_3*%
%TO.N,Net-(J1-Pin_3)*%
X173000000Y-21000000D03*
%TO.P,J1,4,Pin_4*%
%TO.N,Net-(J1-Pin_4)*%
X175500000Y-21000000D03*
%TO.P,J1,5,Pin_5*%
%TO.N,Net-(J1-Pin_5)*%
X178000000Y-21000000D03*
%TO.P,J1,6,Pin_6*%
%TO.N,Net-(J1-Pin_6)*%
X180500000Y-21000000D03*
%TD*%
D12*
%TO.P,J2,1,Pin_1*%
%TO.N,+12v*%
X144500000Y-22000000D03*
D13*
%TO.P,J2,2,Pin_2*%
%TO.N,GND*%
X139500000Y-22000000D03*
%TD*%
D14*
%TO.P,K2,85*%
%TO.N,Net-(J1-Pin_2)*%
X132500000Y-77000000D03*
%TO.P,K2,86*%
%TO.N,+12v*%
X132500000Y-60125000D03*
%TD*%
%TO.P,K4,85*%
%TO.N,Net-(J1-Pin_4)*%
X161000000Y-77000000D03*
%TO.P,K4,86*%
%TO.N,+12v*%
X161000000Y-60125000D03*
%TD*%
%TO.P,K1,85*%
%TO.N,Net-(J1-Pin_1)*%
X132000000Y-49000000D03*
%TO.P,K1,86*%
%TO.N,+12v*%
X132000000Y-32125000D03*
%TD*%
%TO.P,K3,85*%
%TO.N,Net-(J1-Pin_3)*%
X161000000Y-49000000D03*
%TO.P,K3,86*%
%TO.N,+12v*%
X161000000Y-32125000D03*
%TD*%
%TO.P,K5,85*%
%TO.N,Net-(J1-Pin_5)*%
X190000000Y-77000000D03*
%TO.P,K5,86*%
%TO.N,+12v*%
X190000000Y-60125000D03*
%TD*%
%TO.P,K6,85*%
%TO.N,Net-(J1-Pin_6)*%
X190000000Y-49000000D03*
%TO.P,K6,86*%
%TO.N,+12v*%
X190000000Y-32125000D03*
%TD*%
D15*
%TO.N,Net-(J1-Pin_2)*%
X146000000Y-75500000D02*
X144500000Y-77000000D01*
X144500000Y-77000000D02*
X132000000Y-77000000D01*
X146000000Y-36000000D02*
X146000000Y-75500000D01*
X154500000Y-27500000D02*
X146000000Y-36000000D01*
X170500000Y-25000000D02*
X168000000Y-27500000D01*
X170500000Y-21000000D02*
X170500000Y-25000000D01*
X168000000Y-27500000D02*
X154500000Y-27500000D01*
%TO.N,Net-(J1-Pin_1)*%
X140927257Y-49000000D02*
X132000000Y-49000000D01*
X143500000Y-46427257D02*
X140927257Y-49000000D01*
X143500000Y-33000000D02*
X143500000Y-46427257D01*
X155500000Y-21000000D02*
X143500000Y-33000000D01*
X168000000Y-21000000D02*
X155500000Y-21000000D01*
%TO.N,Net-(J1-Pin_3)*%
X172186000Y-46741257D02*
X169927257Y-49000000D01*
X172186000Y-21814000D02*
X172186000Y-46741257D01*
X173000000Y-21000000D02*
X172186000Y-21814000D01*
X169927257Y-49000000D02*
X161000000Y-49000000D01*
%TO.N,Net-(J1-Pin_4)*%
X170000000Y-77000000D02*
X161000000Y-77000000D01*
X174000000Y-33000000D02*
X174000000Y-73000000D01*
X175500000Y-31500000D02*
X174000000Y-33000000D01*
X174000000Y-73000000D02*
X170000000Y-77000000D01*
X175500000Y-21000000D02*
X175500000Y-31500000D01*
%TO.N,Net-(J1-Pin_5)*%
X181000000Y-77000000D02*
X190000000Y-77000000D01*
X176064000Y-72064000D02*
X181000000Y-77000000D01*
X176064000Y-34436000D02*
X176064000Y-72064000D01*
X178000000Y-32500000D02*
X176064000Y-34436000D01*
X178000000Y-21000000D02*
X178000000Y-32500000D01*
%TO.N,Net-(J1-Pin_6)*%
X201000000Y-49000000D02*
X189000000Y-49000000D01*
X202000000Y-48000000D02*
X201000000Y-49000000D01*
X202000000Y-30000000D02*
X202000000Y-48000000D01*
X193000000Y-21000000D02*
X202000000Y-30000000D01*
X180500000Y-21000000D02*
X193000000Y-21000000D01*
%TD*%
M02*
