M48
; DRILL file {KiCad 9.0.3} date 2026-02-15T20:10:58-0600
; FORMAT={-:-/ absolute / inch / decimal}
; #@! TF.CreationDate,2026-02-15T20:10:58-06:00
; #@! TF.GenerationSoftware,Kicad,Pcbnew,9.0.3
; #@! TF.FileFunction,Plated,1,2,PTH
FMAT,2
INCH
; #@! TA.AperFunction,Plated,PTH,ComponentDrill
T1C0.0374
; #@! TA.AperFunction,Plated,PTH,ComponentDrill
T2C0.0394
; #@! TA.AperFunction,Plated,PTH,ComponentDrill
T3C0.0512
%
G90
G05
T1
X6.6142Y-0.8268
X6.7126Y-0.8268
X6.811Y-0.8268
X6.9094Y-0.8268
X7.0079Y-0.8268
X7.1063Y-0.8268
T3
X5.4921Y-0.8661
X5.689Y-0.8661
T2
G00X5.0197Y-1.2648
M15
G01X5.374Y-1.2648
M16
G05
G00X5.0197Y-1.9291
M15
G01X5.374Y-1.9291
M16
G05
G00X5.0394Y-2.3671
M15
G01X5.3937Y-2.3671
M16
G05
G00X5.0394Y-3.0315
M15
G01X5.3937Y-3.0315
M16
G05
G00X6.1614Y-1.2648
M15
G01X6.5157Y-1.2648
M16
G05
G00X6.1614Y-1.9291
M15
G01X6.5157Y-1.9291
M16
G05
G00X6.1614Y-2.3671
M15
G01X6.5157Y-2.3671
M16
G05
G00X6.1614Y-3.0315
M15
G01X6.5157Y-3.0315
M16
G05
G00X7.3031Y-1.2648
M15
G01X7.6575Y-1.2648
M16
G05
G00X7.3031Y-1.9291
M15
G01X7.6575Y-1.9291
M16
G05
G00X7.3031Y-2.3671
M15
G01X7.6575Y-2.3671
M16
G05
G00X7.3031Y-3.0315
M15
G01X7.6575Y-3.0315
M16
G05
M30
